# xmcd
#
# Track frame offsets: 
#        150
#        22033
#        52760
#
# Disc length: 993 seconds
#
# Revision: 0
# Processed by: cddbd v1.5PL3 Copyright (c) Steve Scherf et al.
# Submitted via: ExactAudioCopy v0.90b4
#
DISCID=1a03df03
DTITLE=Kubota, Toshinobu - High Roller
DYEAR=1989
DGENRE=JPop
TTITLE0=High Roller (`Rock It Tonight' Mix)
TTITLE1=High Roller (`World Beat' Mix)
TTITLE2=High Roller (Album Mix)
EXTD=
EXTT0=
EXTT1=
EXTT2=
PLAYORDER=
